<?xml version="1.0" encoding="UTF-8"?><svg id="Layer_1" xmlns="http://www.w3.org/2000/svg" viewBox="0 0 512 183.33"><defs><style>.cls-1{fill:#fff;}.cls-2{fill:#ee3326;}</style></defs><rect width="512" height="183.33"/><g><path class="cls-1" d="M39.78,95.46c2.73,0,4.97,.77,6.7,2.32s2.6,4.02,2.6,7.43v17.27h-9.16v-14.48c0-1.77-.25-3.1-.76-4s-1.32-1.35-2.45-1.35c-1.73,0-2.9,.71-3.49,2.12s-.89,3.44-.89,6.08v11.62h-9.16v-26.55h6.91l1.24,3.52h.35c.56-.84,1.23-1.56,2.02-2.16s1.68-1.05,2.7-1.36,2.15-.47,3.4-.47Z"/><path class="cls-1" d="M68.28,95.46c3.36,0,5.98,.83,7.88,2.5s2.84,4.04,2.84,7.11v17.41h-6.35l-1.76-3.52h-.19c-.75,.94-1.52,1.7-2.31,2.29s-1.69,1.02-2.71,1.29-2.26,.41-3.73,.41-2.91-.31-4.12-.94-2.18-1.57-2.88-2.84-1.05-2.87-1.05-4.8c0-2.84,.98-4.95,2.95-6.33s4.82-2.15,8.55-2.32l4.43-.14v-.38c0-1.19-.29-2.03-.88-2.53s-1.37-.75-2.36-.75c-1.05,0-2.21,.18-3.5,.55s-2.58,.84-3.88,1.42l-2.65-6.05c1.53-.78,3.27-1.38,5.2-1.78s4.11-.61,6.52-.61Zm1.59,15.16l-2.11,.09c-1.69,.06-2.87,.36-3.55,.88s-1.02,1.27-1.02,2.24c0,.91,.24,1.57,.73,2s1.12,.64,1.92,.64c1.11,0,2.06-.35,2.85-1.05s1.18-1.62,1.18-2.74v-2.06Z"/><path class="cls-1" d="M101.26,95.46c.5,0,1.02,.04,1.57,.11s.95,.13,1.22,.18l-.82,8.65c-.3-.08-.68-.14-1.15-.2s-1.12-.08-1.97-.08c-.58,0-1.2,.05-1.85,.16s-1.28,.34-1.86,.69-1.07,.88-1.44,1.59-.56,1.67-.56,2.87v13.05h-9.16v-26.55h6.82l1.43,4.24h.45c.48-.88,1.11-1.67,1.86-2.38s1.61-1.28,2.55-1.7,1.92-.63,2.92-.63Z"/><path class="cls-1" d="M119.7,95.46c2.58,0,4.8,.45,6.68,1.35s3.32,2.25,4.34,4.04,1.52,4.05,1.52,6.75v4.08h-16.38c.08,1.39,.6,2.53,1.56,3.42s2.38,1.34,4.25,1.34c1.66,0,3.18-.16,4.56-.49s2.81-.84,4.28-1.52v6.59c-1.28,.67-2.68,1.16-4.2,1.48s-3.43,.47-5.74,.47c-2.67,0-5.06-.48-7.17-1.43s-3.77-2.43-4.98-4.43-1.82-4.57-1.82-7.71,.55-5.81,1.64-7.86,2.62-3.58,4.59-4.57,4.26-1.49,6.87-1.49Zm.33,6.23c-1.08,0-1.98,.34-2.71,1.02s-1.15,1.75-1.28,3.2h7.88c-.02-.78-.17-1.49-.47-2.13s-.73-1.15-1.3-1.52-1.28-.56-2.12-.56Z"/><path class="cls-1" d="M154.04,95.46c2.73,0,4.97,.77,6.7,2.32s2.6,4.02,2.6,7.43v17.27h-9.16v-14.48c0-1.77-.25-3.1-.76-4s-1.32-1.35-2.45-1.35c-1.73,0-2.9,.71-3.49,2.12s-.89,3.44-.89,6.08v11.62h-9.16v-26.55h6.91l1.24,3.52h.35c.56-.84,1.23-1.56,2.02-2.16s1.68-1.05,2.7-1.36,2.15-.47,3.4-.47Z"/><path class="cls-1" d="M177.83,122.95c-2.73,0-4.98-1.16-6.75-3.49s-2.65-5.73-2.65-10.22,.91-7.96,2.72-10.29,4.16-3.49,7.03-3.49c1.19,0,2.21,.17,3.07,.52s1.61,.81,2.24,1.39,1.18,1.25,1.65,1.98h.19c-.11-.67-.21-1.6-.3-2.78s-.14-2.33-.14-3.46v-7.1h9.23v36.47h-6.91l-1.97-3.35h-.35c-.42,.7-.95,1.34-1.58,1.92s-1.4,1.04-2.3,1.38-1.96,.52-3.18,.52Zm3.75-7.24c1.47,0,2.5-.46,3.11-1.39s.93-2.35,.97-4.25v-.73c0-2.09-.29-3.7-.88-4.82s-1.68-1.68-3.29-1.68c-1.09,0-2,.53-2.72,1.59s-1.08,2.71-1.08,4.95,.36,3.81,1.09,4.82,1.66,1.51,2.8,1.51Z"/><path class="cls-1" d="M216.48,95.46c.5,0,1.02,.04,1.57,.11s.95,.13,1.22,.18l-.82,8.65c-.3-.08-.68-.14-1.15-.2s-1.12-.08-1.97-.08c-.58,0-1.2,.05-1.85,.16s-1.28,.34-1.86,.69-1.07,.88-1.44,1.59-.56,1.67-.56,2.87v13.05h-9.16v-26.55h6.82l1.43,4.24h.45c.48-.88,1.11-1.67,1.86-2.38s1.61-1.28,2.55-1.7,1.92-.63,2.92-.63Z"/><path class="cls-1" d="M235.93,95.46c3.36,0,5.98,.83,7.88,2.5s2.84,4.04,2.84,7.11v17.41h-6.35l-1.76-3.52h-.19c-.75,.94-1.52,1.7-2.31,2.29s-1.69,1.02-2.71,1.29-2.26,.41-3.73,.41-2.91-.31-4.12-.94-2.18-1.57-2.88-2.84-1.05-2.87-1.05-4.8c0-2.84,.98-4.95,2.95-6.33s4.82-2.15,8.55-2.32l4.43-.14v-.38c0-1.19-.29-2.03-.88-2.53s-1.37-.75-2.36-.75c-1.05,0-2.21,.18-3.5,.55s-2.58,.84-3.88,1.42l-2.65-6.05c1.53-.78,3.27-1.38,5.2-1.78s4.11-.61,6.52-.61Zm1.59,15.16l-2.11,.09c-1.69,.06-2.87,.36-3.55,.88s-1.02,1.27-1.02,2.24c0,.91,.24,1.57,.73,2s1.12,.64,1.92,.64c1.11,0,2.06-.35,2.85-1.05s1.18-1.62,1.18-2.74v-2.06Z"/><path class="cls-1" d="M266.47,86.01v18.4c0,1.14-.01,2.3-.04,3.48s-.05,2.36-.08,3.53h.05c.45-.53,.93-1.09,1.42-1.68s.98-1.15,1.46-1.7l10.08-11.04h2.86l-10.05,10.92,10.95,14.55h-2.84l-9.73-12.98-4.08,4.29v8.7h-2.37v-36.47h2.37Z"/><path class="cls-1" d="M307.14,97v25.48h-1.92l-.35-4.59h-.14c-.44,.94-1.05,1.79-1.85,2.55s-1.77,1.38-2.93,1.83-2.5,.68-4.03,.68c-1.95,0-3.59-.34-4.91-1.02s-2.32-1.71-2.99-3.08-1.01-3.09-1.01-5.16v-16.69h2.37v16.45c0,2.55,.57,4.42,1.72,5.62s2.83,1.8,5.05,1.8c1.88,0,3.45-.36,4.72-1.08s2.24-1.81,2.91-3.27,1-3.29,1-5.47v-14.06h2.37Z"/><path class="cls-1" d="M318.08,122.48h-2.39v-36.47h2.39v36.47Z"/><path class="cls-1" d="M328.89,86.01v18.4c0,1.14-.01,2.3-.04,3.48s-.05,2.36-.08,3.53h.05c.45-.53,.93-1.09,1.42-1.68s.98-1.15,1.46-1.7l10.08-11.04h2.86l-10.05,10.92,10.95,14.55h-2.84l-9.73-12.98-4.08,4.29v8.7h-2.37v-36.47h2.37Z"/><path class="cls-1" d="M358.65,96.56c2.8,0,4.89,.7,6.28,2.11s2.09,3.65,2.09,6.73v17.09h-1.83l-.42-4.45h-.14c-.55,.95-1.21,1.8-1.99,2.54s-1.74,1.32-2.87,1.75-2.51,.63-4.14,.63-3.04-.27-4.21-.82-2.06-1.34-2.7-2.39-.95-2.32-.95-3.82c0-2.53,1.05-4.46,3.14-5.78s5.1-2.07,9.02-2.24l4.73-.23v-1.85c0-2.61-.52-4.47-1.55-5.58s-2.55-1.66-4.57-1.66c-1.31,0-2.57,.17-3.79,.5s-2.44,.82-3.69,1.44l-.75-1.97c1.22-.58,2.53-1.05,3.93-1.43s2.86-.56,4.39-.56Zm6,12.96l-4.45,.19c-3.23,.16-5.7,.73-7.38,1.73s-2.53,2.5-2.53,4.5c0,1.61,.5,2.84,1.51,3.7s2.41,1.29,4.21,1.29c2.8,0,4.93-.8,6.41-2.39s2.22-3.77,2.24-6.52v-2.51Z"/><path class="cls-1" d="M385.32,96.56c.67,0,1.3,.04,1.9,.12s1.15,.19,1.66,.33l-.38,2.18c-.52-.14-1.04-.25-1.57-.32s-1.1-.11-1.71-.11c-1.2,0-2.28,.23-3.22,.68s-1.75,1.1-2.4,1.95-1.16,1.86-1.5,3.05-.52,2.52-.52,3.98v14.06h-2.39v-25.48h2.04l.23,4.8h.14c.39-.98,.94-1.87,1.65-2.66s1.57-1.42,2.59-1.89,2.17-.7,3.47-.7Z"/><path class="cls-1" d="M405.08,96.51c2.86,0,5.05,.75,6.59,2.25s2.3,3.85,2.3,7.05v16.66h-2.34v-16.52c0-2.53-.58-4.39-1.73-5.58s-2.84-1.78-5.04-1.78c-2.8,0-4.93,.82-6.41,2.45s-2.21,4.1-2.21,7.39v14.04h-2.37v-25.48h1.92l.35,4.64h.14c.45-.95,1.07-1.82,1.86-2.59s1.76-1.39,2.92-1.85,2.5-.69,4.03-.69Z"/><path class="cls-1" d="M423.41,87.58c.59,0,1.03,.18,1.31,.53s.42,.82,.42,1.42-.14,1.06-.42,1.41-.72,.52-1.31,.52c-.56,0-.98-.17-1.27-.52s-.42-.81-.42-1.41,.14-1.07,.42-1.42,.7-.53,1.27-.53Zm1.15,9.42v25.48h-2.37v-25.48h2.37Z"/><path class="cls-2" d="M431.94,119.57c0-1.28,.34-2.18,1.01-2.71s1.48-.79,2.44-.79,1.77,.26,2.45,.79,1.02,1.43,1.02,2.71-.34,2.15-1.02,2.71-1.5,.83-2.45,.83-1.77-.28-2.44-.83-1.01-1.46-1.01-2.71Z"/></g></svg>