<?xml version="1.0" encoding="UTF-8"?><svg id="Layer_2" xmlns="http://www.w3.org/2000/svg" viewBox="0 0 438.05 37.1"><defs><style>.cls-1{fill:#fff;}.cls-2{fill:#ee3326;}</style></defs><g id="Layer_1-2"><g><path class="cls-1" d="M16.62,9.45c2.73,0,4.97,.77,6.7,2.32s2.6,4.02,2.6,7.43v17.27h-9.16v-14.48c0-1.77-.25-3.1-.76-4s-1.32-1.35-2.45-1.35c-1.73,0-2.9,.71-3.49,2.12s-.89,3.44-.89,6.08v11.62H0V9.91H6.91l1.24,3.52h.35c.56-.84,1.23-1.56,2.02-2.16s1.68-1.05,2.7-1.36,2.15-.47,3.4-.47Z"/><path class="cls-1" d="M45.12,9.45c3.36,0,5.98,.83,7.88,2.5s2.84,4.04,2.84,7.11v17.41h-6.35l-1.76-3.52h-.19c-.75,.94-1.52,1.7-2.31,2.29s-1.69,1.02-2.71,1.29-2.26,.41-3.73,.41-2.91-.31-4.12-.94-2.18-1.57-2.88-2.84-1.05-2.87-1.05-4.8c0-2.84,.98-4.95,2.95-6.33s4.82-2.15,8.55-2.32l4.43-.14v-.38c0-1.19-.29-2.03-.88-2.53s-1.37-.75-2.36-.75c-1.05,0-2.21,.18-3.5,.55s-2.58,.84-3.88,1.42l-2.65-6.05c1.53-.78,3.27-1.38,5.2-1.78s4.11-.61,6.52-.61Zm1.59,15.16l-2.11,.09c-1.69,.06-2.87,.36-3.55,.88s-1.02,1.27-1.02,2.24c0,.91,.24,1.57,.73,2s1.12,.64,1.92,.64c1.11,0,2.06-.35,2.85-1.05s1.18-1.62,1.18-2.74v-2.06Z"/><path class="cls-1" d="M78.09,9.45c.5,0,1.02,.04,1.57,.11s.95,.13,1.22,.18l-.82,8.65c-.3-.08-.68-.14-1.15-.2s-1.12-.08-1.97-.08c-.58,0-1.2,.05-1.85,.16s-1.28,.34-1.86,.69-1.07,.88-1.44,1.59-.56,1.67-.56,2.87v13.05h-9.16V9.91h6.82l1.43,4.24h.45c.48-.88,1.11-1.67,1.86-2.38s1.61-1.28,2.55-1.7,1.92-.63,2.92-.63Z"/><path class="cls-1" d="M96.54,9.45c2.58,0,4.8,.45,6.68,1.35s3.32,2.25,4.34,4.04,1.52,4.05,1.52,6.75v4.08h-16.38c.08,1.39,.6,2.53,1.56,3.42s2.38,1.34,4.25,1.34c1.66,0,3.18-.16,4.56-.49s2.81-.84,4.28-1.52v6.59c-1.28,.67-2.68,1.16-4.2,1.48s-3.43,.47-5.74,.47c-2.67,0-5.06-.48-7.17-1.43s-3.77-2.43-4.98-4.43-1.82-4.57-1.82-7.71,.55-5.81,1.64-7.86,2.62-3.58,4.59-4.57,4.26-1.49,6.87-1.49Zm.33,6.23c-1.08,0-1.98,.34-2.71,1.02s-1.15,1.75-1.28,3.2h7.88c-.02-.78-.17-1.49-.47-2.13s-.73-1.15-1.3-1.52-1.28-.56-2.12-.56Z"/><path class="cls-1" d="M130.88,9.45c2.73,0,4.97,.77,6.7,2.32s2.6,4.02,2.6,7.43v17.27h-9.16v-14.48c0-1.77-.25-3.1-.76-4s-1.32-1.35-2.45-1.35c-1.73,0-2.9,.71-3.49,2.12s-.89,3.44-.89,6.08v11.62h-9.16V9.91h6.91l1.24,3.52h.35c.56-.84,1.23-1.56,2.02-2.16s1.68-1.05,2.7-1.36,2.15-.47,3.4-.47Z"/><path class="cls-1" d="M154.66,36.94c-2.73,0-4.98-1.16-6.75-3.49s-2.65-5.73-2.65-10.22,.91-7.96,2.72-10.29,4.16-3.49,7.03-3.49c1.19,0,2.21,.17,3.07,.52s1.61,.81,2.24,1.39,1.18,1.25,1.65,1.98h.19c-.11-.67-.21-1.6-.3-2.78s-.14-2.33-.14-3.46V0h9.23V36.47h-6.91l-1.97-3.35h-.35c-.42,.7-.95,1.34-1.58,1.92s-1.4,1.04-2.3,1.38-1.96,.52-3.18,.52Zm3.75-7.24c1.47,0,2.5-.46,3.11-1.39s.93-2.35,.97-4.25v-.73c0-2.09-.29-3.7-.88-4.82s-1.68-1.68-3.29-1.68c-1.09,0-2,.53-2.72,1.59s-1.08,2.71-1.08,4.95,.36,3.81,1.09,4.82,1.66,1.51,2.8,1.51Z"/><path class="cls-1" d="M193.31,9.45c.5,0,1.02,.04,1.57,.11s.95,.13,1.22,.18l-.82,8.65c-.3-.08-.68-.14-1.15-.2s-1.12-.08-1.97-.08c-.58,0-1.2,.05-1.85,.16s-1.28,.34-1.86,.69-1.07,.88-1.44,1.59-.56,1.67-.56,2.87v13.05h-9.16V9.91h6.82l1.43,4.24h.45c.48-.88,1.11-1.67,1.86-2.38s1.61-1.28,2.55-1.7,1.92-.63,2.92-.63Z"/><path class="cls-1" d="M212.77,9.45c3.36,0,5.98,.83,7.88,2.5s2.84,4.04,2.84,7.11v17.41h-6.35l-1.76-3.52h-.19c-.75,.94-1.52,1.7-2.31,2.29s-1.69,1.02-2.71,1.29-2.26,.41-3.73,.41-2.91-.31-4.12-.94-2.18-1.57-2.88-2.84-1.05-2.87-1.05-4.8c0-2.84,.98-4.95,2.95-6.33s4.82-2.15,8.55-2.32l4.43-.14v-.38c0-1.19-.29-2.03-.88-2.53s-1.37-.75-2.36-.75c-1.05,0-2.21,.18-3.5,.55s-2.58,.84-3.88,1.42l-2.65-6.05c1.53-.78,3.27-1.38,5.2-1.78s4.11-.61,6.52-.61Zm1.59,15.16l-2.11,.09c-1.69,.06-2.87,.36-3.55,.88s-1.02,1.27-1.02,2.24c0,.91,.24,1.57,.73,2s1.12,.64,1.92,.64c1.11,0,2.06-.35,2.85-1.05s1.18-1.62,1.18-2.74v-2.06Z"/><path class="cls-1" d="M246.17,0V17.62c0,.8-.03,1.67-.09,2.61s-.12,1.83-.19,2.66h.12c.41-.55,.89-1.19,1.46-1.92s1.11-1.38,1.63-1.92l7.92-8.53h6.33l-10.38,11.16,11.06,14.79h-6.47l-8.3-11.39-3.09,2.67v8.72h-5.53V0h5.53Z"/><path class="cls-1" d="M290.77,10.52v25.95h-4.34l-.77-3.47h-.28c-.55,.89-1.24,1.63-2.09,2.21s-1.79,1.02-2.82,1.3-2.13,.42-3.27,.42c-1.94,0-3.6-.33-4.98-1s-2.45-1.69-3.19-3.08-1.11-3.19-1.11-5.39V10.52h5.55v15.91c0,2.02,.41,3.52,1.23,4.52s2.1,1.5,3.83,1.5,3-.34,3.97-1.03,1.68-1.7,2.1-3.05,.63-2.99,.63-4.95V10.52h5.53Z"/><path class="cls-1" d="M304.18,36.47h-5.55V0h5.55V36.47Z"/><path class="cls-1" d="M317.54,0V17.62c0,.8-.03,1.67-.09,2.61s-.12,1.83-.19,2.66h.12c.41-.55,.89-1.19,1.46-1.92s1.11-1.38,1.63-1.92l7.92-8.53h6.33l-10.38,11.16,11.06,14.79h-6.47l-8.3-11.39-3.09,2.67v8.72h-5.53V0h5.53Z"/><path class="cls-1" d="M349.69,10.03c3.28,0,5.76,.73,7.44,2.18s2.52,3.72,2.52,6.8v17.46h-3.91l-1.08-3.68h-.19c-.73,.94-1.49,1.71-2.27,2.33s-1.68,1.07-2.7,1.37-2.26,.45-3.73,.45c-1.56,0-2.95-.29-4.17-.86s-2.18-1.44-2.87-2.61-1.04-2.66-1.04-4.45c0-2.67,1-4.68,2.99-6.02s5-2.09,9.04-2.23l4.48-.16v-1.36c0-1.78-.41-3.05-1.24-3.82s-2-1.15-3.52-1.15c-1.3,0-2.55,.19-3.77,.56s-2.41,.83-3.56,1.36l-1.8-3.89c1.28-.67,2.73-1.22,4.35-1.64s3.3-.63,5.05-.63Zm4.48,14.04l-3.33,.14c-2.75,.09-4.68,.56-5.79,1.39s-1.66,1.99-1.66,3.46c0,1.28,.38,2.21,1.15,2.8s1.77,.88,3.02,.88c1.91,0,3.48-.54,4.73-1.63s1.88-2.68,1.88-4.77v-2.27Z"/><path class="cls-1" d="M380.51,10.03c.44,0,.91,.02,1.43,.07s.96,.11,1.34,.19l-.52,5.18c-.33-.09-.73-.17-1.21-.22s-.9-.08-1.28-.08c-.98,0-1.92,.16-2.81,.49s-1.68,.82-2.37,1.46-1.23,1.46-1.62,2.43-.59,2.09-.59,3.38v13.55h-5.55V10.52h4.34l.75,4.57h.26c.52-.92,1.16-1.77,1.92-2.53s1.64-1.38,2.64-1.84,2.08-.69,3.27-.69Z"/><path class="cls-1" d="M401.61,10.03c2.92,0,5.2,.75,6.83,2.26s2.45,3.93,2.45,7.25v16.92h-5.51v-15.89c0-2-.41-3.5-1.24-4.51s-2.11-1.51-3.84-1.51c-2.52,0-4.26,.77-5.24,2.32s-1.46,3.78-1.46,6.7v12.89h-5.53V10.52h4.31l.77,3.52h.3c.56-.91,1.26-1.65,2.1-2.24s1.77-1.03,2.81-1.32,2.12-.45,3.25-.45Z"/><path class="cls-1" d="M421.36,.59c.84,0,1.57,.23,2.19,.68s.93,1.23,.93,2.34-.31,1.88-.93,2.34-1.35,.7-2.19,.7-1.62-.23-2.23-.7-.91-1.25-.91-2.34,.3-1.89,.91-2.34,1.35-.68,2.23-.68Zm2.72,9.94v25.95h-5.53V10.52h5.53Z"/><path class="cls-2" d="M431.14,33.56c0-1.28,.34-2.18,1.01-2.71s1.48-.79,2.44-.79,1.77,.26,2.45,.79,1.02,1.43,1.02,2.71-.34,2.15-1.02,2.71-1.5,.83-2.45,.83-1.77-.28-2.44-.83-1.01-1.46-1.01-2.71Z"/></g></g></svg>