<svg id="Group_3" data-name="Group 3" xmlns="http://www.w3.org/2000/svg" xmlns:xlink="http://www.w3.org/1999/xlink" width="95.601" height="89.307" viewBox="0 0 95.601 89.307">
  <defs>
    <clipPath id="clip-path">
      <rect id="Rectangle_1" data-name="Rectangle 1" width="95.601" height="89.307" fill="#fff"/>
    </clipPath>
  </defs>
  <path id="Path_1" data-name="Path 1" d="M61.7,81.122l.04.02-.027-.04Z" transform="translate(-25.615 -33.672)" fill="#fff"/>
  <path id="Path_2" data-name="Path 2" d="M41.6,80.881l.052.089.1-.186Z" transform="translate(-17.269 -33.539)" fill="#fff"/>
  <path id="Path_3" data-name="Path 3" d="M121.705,81.142l.04-.02-.012-.02Z" transform="translate(-50.529 -33.672)" fill="#fff"/>
  <path id="Path_4" data-name="Path 4" d="M101.708,80.97l.053-.089-.157-.1Z" transform="translate(-42.183 -33.539)" fill="#fff"/>
  <g id="Group_2" data-name="Group 2">
    <g id="Group_1" data-name="Group 1" clip-path="url(#clip-path)">
      <path id="Path_5" data-name="Path 5" d="M137.891,46.256,118.042,16.1l2.38.014c2.071-.858,14.121-11.395,15.41-12.7l.893-.9.958.832c11.164,9.7,6.379,24.059,2.535,35.6-.525,1.576-1.034,3.1-1.482,4.559Zm-15.384-28.3L137.016,40c.206-.626.418-1.263.633-1.906,3.659-10.979,7.79-23.375-.859-31.88-2.7,2.455-10.392,9.315-14.283,11.747" transform="translate(-49.008 -1.046)" fill="#fff"/>
      <path id="Path_6" data-name="Path 6" d="M37.008,65.5V36.631H33.626L19.51,61.082,44.683,103,31.962,88.911,15.3,61.163l-.028-.04.1-.185L31.518,32.979l.395.23v-.23h8.751V61.848h9.3V32.979h3.652V65.5Z" transform="translate(-6.339 -13.692)" fill="#fff"/>
      <path id="Path_7" data-name="Path 7" d="M88.8,69.405v.952l-.1.044v-1Z" transform="translate(-36.822 -28.815)" fill="#fff"/>
      <path id="Path_8" data-name="Path 8" d="M120.975,61.122l-.028.04L104.283,88.911,91.562,103l25.173-41.917-8.783-15.212-8.715,3.765-3.656,1.58-7.1,3.068-2.2.951v-.951h-.1V65.5H82.626V32.979h3.652V50.634l9.3-4.019,3.656-1.58,6.59-2.846-3.208-5.558H99.236v.463H95.581V32.979h8.751v.23l.4-.23L109.2,40.73l1.278,2.209,10.392,18Z" transform="translate(-34.304 -13.692)" fill="#fff"/>
      <path id="Path_9" data-name="Path 9" d="M88.8,69.405v.952l-.1.044v-1Z" transform="translate(-36.822 -28.815)" fill="#fff"/>
      <path id="Path_10" data-name="Path 10" d="M88.8,69.405v.952l-.1.044v-1Z" transform="translate(-36.822 -28.815)" fill="#fff"/>
      <path id="Path_11" data-name="Path 11" d="M48.281,90.543c-4.343-2.167-10.106,1.894-10.106,1.894.429,2.641,3.4,5.1,5.718,6.755s5.852-.385,6.94.14,4.3,4.912,4.3,4.912c.851-4.675-2.5-11.526-6.85-13.7m-5.1,2.367a6.247,6.247,0,0,1,6.991,2.308s-5.763,6.28-6.991-2.308" transform="translate(-15.849 -37.327)" fill="#fff"/>
      <path id="Path_12" data-name="Path 12" d="M82.631,118.252c0,2.114-2.81,3.825-6.281,3.825-2.866,0-5.286-1.171-6.039-2.77,2.9-1.306,8.555-1.82,8.555-1.82-2-1.587-6.073-1.142-8.291-.744.964-1.366,3.19-2.321,5.775-2.321,3.472,0,6.281,1.716,6.281,3.83" transform="translate(-29.191 -47.505)" fill="#fff"/>
      <path id="Path_13" data-name="Path 13" d="M84.052,135.2c-1.028,2.142-3.135,4.823-5.9,4.018a8.064,8.064,0,0,1-3.05-2.246c-.76-.706-1.284-.824-1.812-.617a7.594,7.594,0,0,0-2.009,1.861,5.585,5.585,0,0,1-1.649,1.353c.637.38,1.264.706,1.97,1.061a7.032,7.032,0,0,0,3.89.5l.217.444c-2.345,2.138-6.619,1.466-7.675-1.452a4.037,4.037,0,0,1-2.824-.538,7.32,7.32,0,0,1-3.278-4.492l.4-.291c1.629.948,3.371,2.592,5.074,2.631a2.945,2.945,0,0,0,1.94-1.106,10.747,10.747,0,0,1,1.259-1.263,2.148,2.148,0,0,1-1.783-1.338l.287-.4c1.55-.054,1.752.256,2.848-.513a2.578,2.578,0,0,1,2.612-.089c.528.311.819.7,1.387.79a6.545,6.545,0,0,0,2.31-.222l.158.469a5.415,5.415,0,0,1-1.13.652,3.446,3.446,0,0,1-1.209.32,6.865,6.865,0,0,1,.647.632,8.9,8.9,0,0,0,2.049,2.1c1.738.755,3.657-1.268,4.867-2.538Z" transform="translate(-25.713 -54.971)" fill="#fff"/>
      <path id="Path_14" data-name="Path 14" d="M95.1,104.244s3.211-4.394,4.3-4.913,4.631,1.509,6.94-.14,5.289-4.113,5.718-6.754c0,0-5.763-4.062-10.106-1.894s-7.7,9.026-6.85,13.7m4.956-9.026a6.246,6.246,0,0,1,6.991-2.308c-1.228,8.589-6.991,2.308-6.991,2.308" transform="translate(-39.428 -37.327)" fill="#fff"/>
      <path id="Path_15" data-name="Path 15" d="M6.718,43.736l-.845-2.748C5.425,39.531,4.917,38,4.391,36.429.547,24.891-4.238,10.533,6.927.833L7.885,0l.892.9c1.287,1.3,13.335,11.836,15.41,12.7l2.38-.014ZM7.82,3.693C-.829,12.2,3.3,24.594,6.961,35.573q.322.966.633,1.906L22.1,15.441C18.21,13.011,10.523,6.148,7.82,3.693" transform="translate(0)" fill="#fff"/>
    </g>
  </g>
</svg>
